# xmcd
#
# Track frame offsets:
#	150
#	16642
#	29527
#	48082
#	62502
#	76420
#	89095
#	104927
#	118055
#	130837
#	143317
#	156480
#	172315
#	188245
#
# Disc length: 2703 seconds
#
# Revision: 0
# Processed by: cddbd v1.5.1PL0 Copyright (c) Steve Scherf et al.
# Submitted via: EasyCDDAExtractor 8.0.1.1
#
DISCID=c00a8d0e
DTITLE=Georges Hamel - Compilation  Vol.1
DYEAR=1900
DGENRE=Country
TTITLE0=Une Fleur Pour Vous
TTITLE1=Petite Maryse
TTITLE2=Marcel A Chanté
TTITLE3=Accroche Toi A Mon Coeur
TTITLE4=L'amour Et Le Printemps
TTITLE5=Un Roman D'amour
TTITLE6=La Plus Belle Valse
TTITLE7=Je Vois Que Tu T'en Vas
TTITLE8=Toi Maman
TTITLE9=Si Tu Reviens
TTITLE10=Il Est Trop Tard
TTITLE11=Bonjour Montagne Jolie
TTITLE12=Mon Petit Frere
TTITLE13=Le Roi De La Route
EXTD=
EXTT0=
EXTT1=
EXTT2=
EXTT3=
EXTT4=
EXTT5=
EXTT6=
EXTT7=
EXTT8=
EXTT9=
EXTT10=
EXTT11=
EXTT12=
EXTT13=
PLAYORDER=
